<svg id="图层_1" data-name="图层 1" xmlns="http://www.w3.org/2000/svg" viewBox="0 0 48 48"><defs><style>.cls-1{fill:#ccc;}</style></defs><title>学生移动端icon_单色</title><path class="cls-1" d="M24,16.66a1.5,1.5,0,0,0-1.5,1.5v9.37a1.5,1.5,0,0,0,3,0V18.16A1.5,1.5,0,0,0,24,16.66Z"/><path class="cls-1" d="M24,29.8a1.5,1.5,0,0,0-1.5,1.5v.82a1.5,1.5,0,0,0,3,0V31.3A1.5,1.5,0,0,0,24,29.8Z"/><path class="cls-1" d="M40.76,31,28.41,10.72a5.18,5.18,0,0,0-8.81,0L7.24,31a5,5,0,0,0-.09,5.05,5.09,5.09,0,0,0,4.5,2.61H36.36a5.09,5.09,0,0,0,4.5-2.61A5,5,0,0,0,40.76,31Zm-2.53,3.58a2.12,2.12,0,0,1-1.88,1.08H11.64a2.12,2.12,0,0,1-1.88-1.08,2,2,0,0,1,0-2L22.16,12.28a2.18,2.18,0,0,1,3.69,0L38.2,32.58A2,2,0,0,1,38.24,34.61Z"/></svg>