<svg id="图层_1" data-name="图层 1" xmlns="http://www.w3.org/2000/svg" viewBox="0 0 48 48"><defs><style>.cls-1{fill:#ccc;}</style></defs><title>学生移动端icon_单色</title><path class="cls-1" d="M25,6.59a4.52,4.52,0,0,0-4.15,2.68l-2.76,6-6.23,1a4.57,4.57,0,0,0-3.62,3.06,4.62,4.62,0,0,0,1,4.69L13.93,29l-1.1,6.92a4.62,4.62,0,0,0,1,3.73,4.53,4.53,0,0,0,5.71,1L25,37.58l5.39,3.06a4.53,4.53,0,0,0,5.71-1,4.62,4.62,0,0,0,1-3.73L36,29,40.7,24a4.62,4.62,0,0,0,1-4.69,4.57,4.57,0,0,0-3.62-3.06l-6.23-1-2.76-6A4.52,4.52,0,0,0,25,6.59Z"/></svg>