<svg id="图层_1" data-name="图层 1" xmlns="http://www.w3.org/2000/svg" viewBox="0 0 48 48"><defs><style>.cls-1{fill:#ccc;}</style></defs><title>学生移动端icon_单色</title><path class="cls-1" d="M25,9.59a1.54,1.54,0,0,1,1.42.93l3.07,6.72a1.57,1.57,0,0,0,1.18.91l7,1.1A1.62,1.62,0,0,1,38.52,22l-5.16,5.43a1.64,1.64,0,0,0-.42,1.38l1.2,7.58a1.6,1.6,0,0,1-1.55,1.87,1.53,1.53,0,0,1-.76-.2l-6.11-3.47a1.53,1.53,0,0,0-1.52,0L18.1,38a1.53,1.53,0,0,1-.76.2,1.6,1.6,0,0,1-1.55-1.87L17,28.78a1.64,1.64,0,0,0-.42-1.38L11.41,22a1.62,1.62,0,0,1,.88-2.72l7-1.1a1.57,1.57,0,0,0,1.18-.91l3.07-6.72A1.54,1.54,0,0,1,25,9.59m0-3a4.52,4.52,0,0,0-4.15,2.68l-2.76,6-6.23,1a4.57,4.57,0,0,0-3.62,3.06,4.62,4.62,0,0,0,1,4.69L13.93,29l-1.1,6.92a4.62,4.62,0,0,0,1,3.73,4.53,4.53,0,0,0,5.71,1L25,37.58l5.39,3.06a4.53,4.53,0,0,0,5.71-1,4.62,4.62,0,0,0,1-3.73L36,29,40.7,24a4.62,4.62,0,0,0,1-4.69,4.57,4.57,0,0,0-3.62-3.06l-6.23-1-2.76-6A4.52,4.52,0,0,0,25,6.59Z"/></svg>