<svg id="图层_1" data-name="图层 1" xmlns="http://www.w3.org/2000/svg" viewBox="0 0 40 40"><defs><style>.cls-1{fill:#ff9000;}</style></defs><title>学生移动端icon_单色</title><path class="cls-1" d="M22.21,4.86l3.51,7.51a1.79,1.79,0,0,0,1.35,1l8,1.23a1.8,1.8,0,0,1,1,3l-5.9,6.07a1.8,1.8,0,0,0-.49,1.55l1.38,8.47a1.79,1.79,0,0,1-2.63,1.86l-7-3.88a1.78,1.78,0,0,0-1.73,0l-7,3.88a1.79,1.79,0,0,1-2.63-1.86l1.38-8.47A1.8,1.8,0,0,0,11,23.71L5.1,17.64a1.8,1.8,0,0,1,1-3l8-1.23a1.79,1.79,0,0,0,1.35-1L19,4.86A1.79,1.79,0,0,1,22.21,4.86Z"/></svg>