<svg id="图层_1" data-name="图层 1" xmlns="http://www.w3.org/2000/svg" viewBox="0 0 40 40"><defs><style>.cls-1{fill:#ccc;}</style></defs><title>学生移动端icon_单色</title><path class="cls-1" d="M20.59,6.82a1.44,1.44,0,0,1,1.32.84l2.85,6.1a1.46,1.46,0,0,0,1.1.82l6.5,1a1.46,1.46,0,0,1,.82,2.46L28.38,23A1.47,1.47,0,0,0,28,24.24l1.12,6.88a1.46,1.46,0,0,1-1.44,1.7,1.44,1.44,0,0,1-.7-.19l-5.67-3.15a1.45,1.45,0,0,0-1.41,0l-5.67,3.15a1.44,1.44,0,0,1-.7.19,1.46,1.46,0,0,1-1.44-1.7l1.12-6.88A1.47,1.47,0,0,0,12.8,23L8,18.05a1.46,1.46,0,0,1,.82-2.46l6.5-1a1.46,1.46,0,0,0,1.1-.82l2.85-6.1a1.44,1.44,0,0,1,1.32-.84m0-3a4.41,4.41,0,0,0-4,2.57l-2.5,5.36-5.68.87a4.46,4.46,0,0,0-2.52,7.52l4.25,4.38-1,6.12a4.45,4.45,0,0,0,6.56,4.62l4.92-2.73,4.92,2.73a4.46,4.46,0,0,0,6.56-4.62l-1-6.12,4.25-4.38a4.46,4.46,0,0,0-2.52-7.52l-5.68-.87-2.5-5.36a4.41,4.41,0,0,0-4-2.57Z"/></svg>