<svg id="图层_1" data-name="图层 1" xmlns="http://www.w3.org/2000/svg" viewBox="0 0 40 40"><defs><style>.cls-1{fill:#ccc;}</style></defs><title>学生移动端icon_单色</title><path class="cls-1" d="M27,11a5.36,5.36,0,0,1,3.9,1.7h0a6,6,0,0,1,0,8.19l-6.49,6.82h0l-2.6,2.73a1.77,1.77,0,0,1-2.59,0l-2.6-2.73L10.1,20.88a6,6,0,0,1,0-8.19h0a5.32,5.32,0,0,1,7.79,0l2.6,2.73,2.6-2.73A5.36,5.36,0,0,1,27,11m0-3a8.31,8.31,0,0,0-6.07,2.63l-.42.44-.42-.44a8.32,8.32,0,0,0-12.14,0A9,9,0,0,0,7.93,23l6.49,6.82L17,32.5a4.77,4.77,0,0,0,6.94,0l2.6-2.73L33,23a9,9,0,0,0,0-12.32A8.31,8.31,0,0,0,27,8Z"/></svg>