<svg id="图层_1" data-name="图层 1" xmlns="http://www.w3.org/2000/svg" viewBox="0 0 28 28"><defs><style>.cls-1{fill:#b3b3b3;}</style></defs><title>课堂即时评价_移动端icon_单色</title><path class="cls-1" d="M14,24.29a6.65,6.65,0,0,1-4.84-2.08L4.47,17.3a7.25,7.25,0,0,1,0-9.93A6.65,6.65,0,0,1,9.31,5.29h0A6.64,6.64,0,0,1,14,7.22a6.64,6.64,0,0,1,4.69-1.94h0a6.64,6.64,0,0,1,4.84,2.08,7.25,7.25,0,0,1,0,9.93L18.84,22.2A6.65,6.65,0,0,1,14,24.29Zm-4.7-16A3.67,3.67,0,0,0,6.63,9.44a4.28,4.28,0,0,0,0,5.78l4.69,4.91a3.75,3.75,0,0,0,5.34,0l4.69-4.91a4.28,4.28,0,0,0,0-5.78A3.67,3.67,0,0,0,18.7,8.29h0A3.67,3.67,0,0,0,16,9.44h0l-.94,1a1.55,1.55,0,0,1-2.17,0l-.94-1A3.67,3.67,0,0,0,9.31,8.29Z"/></svg>