<svg id="图层_1" data-name="图层 1" xmlns="http://www.w3.org/2000/svg" viewBox="0 0 28 28"><defs><style>.cls-1{fill:white;}</style></defs><title>课堂即时评价_移动端icon_单色</title><path class="cls-1" d="M15.38,4.53l2,4.28a1.5,1.5,0,0,0,1.13.85l4.61.7A1.5,1.5,0,0,1,24,12.9l-3.43,3.51a1.5,1.5,0,0,0-.41,1.29l.8,4.88a1.5,1.5,0,0,1-2.21,1.56l-4-2.2a1.5,1.5,0,0,0-1.45,0l-4,2.2A1.5,1.5,0,0,1,7.1,22.58l.8-4.88a1.5,1.5,0,0,0-.41-1.29L4.07,12.9a1.5,1.5,0,0,1,.85-2.54l4.61-.7a1.5,1.5,0,0,0,1.13-.85l2-4.28A1.5,1.5,0,0,1,15.38,4.53Z"/></svg>