<svg id="图层_1" data-name="图层 1" xmlns="http://www.w3.org/2000/svg" viewBox="0 0 40 40"><defs><style>.cls-1{fill:#ccc;}</style></defs><title>学生移动端icon_单色</title><path class="cls-1" d="M20,13.83c8.28,0,15,5.27,15,6.56C35,24,28.28,27,20,27S5,24,5,20.4c0-1.37,6.72-6.56,15-6.56m0-3A25.93,25.93,0,0,0,8,14c-2.72,1.47-6,3.79-6,6.43C2,26.67,11.06,30,20,30s18-3.28,18-9.56c0-2.6-3.24-4.92-6-6.4a25.84,25.84,0,0,0-12-3.16Z"/><path class="cls-1" d="M20,18.4a2,2,0,1,1-2,2,2,2,0,0,1,2-2m0-3a5,5,0,1,0,5,5,5,5,0,0,0-5-5Z"/></svg>